Normalized EMG Linear Envelopes
nRows=227
nColumns=4

endheader
time	 med_gas_r	  soleus_r	 tib_ant_r	
3.42641	  0.006484	  0.024690	  0.004252	
3.45968	  0.006530	  0.025060	  0.004247	
3.49294	  0.006624	  0.025121	  0.004212	
3.52621	  0.006705	  0.024999	  0.004172	
3.55948	  0.006771	  0.024855	  0.004124	
3.59274	  0.006841	  0.024717	  0.004050	
3.62601	  0.006911	  0.024569	  0.003974	
3.65927	  0.006992	  0.024410	  0.003910	
3.69254	  0.007122	  0.024169	  0.003839	
3.72581	  0.007319	  0.023797	  0.003757	
3.75907	  0.007548	  0.023296	  0.003711	
3.79234	  0.007728	  0.022632	  0.003711	
3.8256	  0.007804	  0.021866	  0.003729	
3.85887	  0.007783	  0.021248	  0.003770	
3.89214	  0.007655	  0.020980	  0.003855	
3.9254	  0.007448	  0.021127	  0.003964	
3.95867	  0.007239	  0.021640	  0.004064	
3.99194	  0.007084	  0.022400	  0.004163	
4.0252	  0.007026	  0.023142	  0.004244	
4.05847	  0.007101	  0.023657	  0.004277	
4.09173	  0.007321	  0.023930	  0.004282	
4.125	  0.007642	  0.024027	  0.004276	
4.15827	  0.008012	  0.024056	  0.004247	
4.19153	  0.008388	  0.024073	  0.004214	
4.2248	  0.008702	  0.024050	  0.004203	
4.25806	  0.008907	  0.023992	  0.004207	
4.29133	  0.008931	  0.023965	  0.004206	
4.3246	  0.008734	  0.023909	  0.004222	
4.35786	  0.008362	  0.023672	  0.004256	
4.39113	  0.007947	  0.023281	  0.004280	
4.4244	  0.007584	  0.022781	  0.004300	
4.45766	  0.007299	  0.022147	  0.004330	
4.49093	  0.007073	  0.021421	  0.004348	
4.52419	  0.006881	  0.020751	  0.004344	
4.55746	  0.006727	  0.020271	  0.004348	
4.59073	  0.006637	  0.020078	  0.004351	
4.62399	  0.006635	  0.020158	  0.004323	
4.65726	  0.006715	  0.020422	  0.004285	
4.69052	  0.006865	  0.020679	  0.004242	
4.72379	  0.007067	  0.020825	  0.004175	
4.75706	  0.007283	  0.020852	  0.004116	
4.79032	  0.007472	  0.020876	  0.004102	
4.82359	  0.007635	  0.021074	  0.004128	
4.85685	  0.007804	  0.021512	  0.004206	
4.89012	  0.007990	  0.022123	  0.004357	
4.92339	  0.008190	  0.022695	  0.004559	
4.95665	  0.008365	  0.023059	  0.004775	
4.98992	  0.008503	  0.023078	  0.004989	
5.02319	  0.008580	  0.022747	  0.005138	
5.05645	  0.008577	  0.022221	  0.005128	
5.08972	  0.008498	  0.021569	  0.004896	
5.12298	  0.008328	  0.020824	  0.004347	
5.15625	  0.008066	  0.019950	  0.003337	
5.18952	  0.007749	  0.018986	  0.001751	
5.22278	  0.007419	  0.017971	 -0.000512	
5.25605	  0.007086	  0.016938	 -0.003505	
5.28931	  0.006732	  0.015942	 -0.007130	
5.32258	  0.006380	  0.015048	 -0.011030	
5.35585	  0.006081	  0.014366	 -0.014541	
5.38911	  0.005887	  0.014082	 -0.016562	
5.42238	  0.005891	  0.014566	 -0.015420	
5.45565	  0.006175	  0.016319	 -0.008864	
5.48891	  0.006832	  0.020053	  0.005875	
5.52218	  0.008013	  0.026678	  0.031913	
5.55544	  0.009879	  0.037100	  0.072243	
5.58871	  0.012546	  0.052187	  0.128933	
5.62198	  0.016034	  0.072354	  0.201984	
5.65524	  0.020193	  0.097198	  0.287643	
5.68851	  0.024639	  0.125210	  0.377134	
5.72177	  0.028995	  0.154071	  0.461512	
5.75504	  0.033104	  0.181531	  0.537311	
5.78831	  0.036869	  0.205260	  0.604289	
5.82157	  0.040333	  0.224575	  0.662677	
5.85484	  0.043561	  0.239409	  0.711099	
5.8881	  0.046507	  0.251497	  0.749351	
5.92137	  0.048885	  0.262449	  0.777516	
5.95464	  0.050702	  0.271287	  0.798156	
5.9879	  0.052039	  0.275827	  0.813213	
6.02117	  0.052972	  0.275816	  0.824908	
6.05444	  0.053457	  0.273771	  0.835398	
6.0877	  0.053288	  0.272837	  0.841418	
6.12097	  0.052583	  0.273175	  0.843916	
6.15423	  0.051557	  0.275213	  0.846325	
6.1875	  0.050324	  0.279986	  0.849801	
6.22077	  0.049031	  0.287166	  0.851363	
6.25403	  0.048174	  0.295581	  0.850275	
6.2873	  0.048120	  0.303497	  0.848644	
6.32056	  0.048879	  0.309113	  0.849133	
6.35383	  0.050082	  0.311187	  0.852737	
6.3871	  0.051386	  0.310836	  0.861089	
6.42036	  0.052511	  0.309036	  0.874197	
6.45363	  0.053182	  0.305473	  0.889290	
6.4869	  0.053426	  0.301405	  0.902695	
6.52016	  0.053348	  0.299902	  0.909355	
6.55343	  0.052891	  0.304414	  0.904583	
6.58669	  0.052047	  0.315999	  0.890430	
6.61996	  0.050861	  0.332136	  0.873794	
6.65323	  0.049388	  0.347616	  0.858002	
6.68649	  0.047900	  0.356863	  0.845141	
6.71976	  0.046734	  0.358225	  0.834516	
6.75302	  0.046185	  0.355434	  0.822325	
6.78629	  0.046176	  0.352782	  0.804181	
6.81956	  0.046477	  0.355002	  0.781735	
6.85282	  0.047011	  0.363787	  0.759227	
6.88609	  0.047936	  0.379180	  0.740793	
6.91935	  0.049470	  0.401765	  0.729944	
6.95262	  0.051577	  0.433431	  0.729858	
6.98589	  0.054045	  0.474256	  0.739836	
7.01915	  0.056873	  0.521189	  0.757568	
7.05242	  0.060017	  0.569703	  0.779425	
7.08569	  0.063058	  0.616171	  0.798962	
7.11895	  0.065630	  0.658458	  0.809945	
7.15222	  0.067164	  0.693767	  0.809917	
7.18548	  0.067645	  0.718050	  0.802494	
7.21875	  0.067315	  0.730188	  0.788513	
7.25202	  0.065965	  0.730583	  0.769677	
7.28528	  0.063639	  0.718560	  0.752649	
7.31855	  0.060640	  0.695534	  0.741202	
7.35181	  0.057616	  0.664675	  0.735133	
7.38508	  0.055083	  0.628014	  0.733569	
7.41835	  0.053222	  0.588650	  0.736841	
7.45161	  0.052036	  0.549927	  0.746636	
7.48488	  0.051399	  0.511651	  0.760729	
7.51815	  0.051130	  0.472910	  0.775753	
7.55141	  0.051001	  0.434673	  0.788289	
7.58468	  0.050800	  0.400241	  0.796833	
7.61794	  0.050510	  0.373382	  0.800952	
7.65121	  0.050029	  0.353141	  0.798670	
7.68448	  0.049451	  0.335422	  0.785344	
7.71774	  0.048762	  0.318499	  0.759175	
7.75101	  0.048040	  0.303694	  0.723033	
7.78427	  0.047576	  0.293619	  0.684414	
7.81754	  0.047553	  0.290490	  0.652315	
7.85081	  0.048090	  0.296564	  0.631538	
7.88407	  0.049106	  0.312534	  0.623229	
7.91734	  0.050616	  0.337587	  0.627229	
7.9506	  0.052582	  0.367581	  0.642302	
7.98387	  0.054611	  0.395766	  0.667833	
8.01714	  0.056420	  0.416089	  0.701584	
8.0504	  0.057819	  0.427362	  0.739421	
8.08367	  0.058706	  0.435275	  0.776795	
8.11694	  0.058949	  0.444897	  0.806761	
8.1502	  0.058524	  0.459395	  0.825591	
8.18347	  0.057343	  0.478269	  0.833312	
8.21673	  0.055508	  0.498399	  0.831256	
8.25	  0.053343	  0.517845	  0.819266	
8.28327	  0.051459	  0.540472	  0.796197	
8.31653	  0.050464	  0.568410	  0.764736	
8.3498	  0.050795	  0.600375	  0.734014	
8.38306	  0.052731	  0.636115	  0.711574	
8.41633	  0.056297	  0.675224	  0.699502	
8.4496	  0.061293	  0.716068	  0.695244	
8.48286	  0.067399	  0.756439	  0.696650	
8.51613	  0.074259	  0.793327	  0.700959	
8.5494	  0.081518	  0.823432	  0.705122	
8.58266	  0.088503	  0.844275	  0.706934	
8.61593	  0.094103	  0.854449	  0.705749	
8.64919	  0.097496	  0.856625	  0.699783	
8.68246	  0.098788	  0.855087	  0.691090	
8.71573	  0.098176	  0.855753	  0.681435	
8.74899	  0.096169	  0.861037	  0.672906	
8.78226	  0.093515	  0.867631	  0.667126	
8.81552	  0.091276	  0.869235	  0.667485	
8.84879	  0.089940	  0.863220	  0.674782	
8.88206	  0.089478	  0.852139	  0.687145	
8.91532	  0.089744	  0.841305	  0.703645	
8.94859	  0.090597	  0.836045	  0.722901	
8.98185	  0.091656	  0.840046	  0.742432	
9.01512	  0.092239	  0.853036	  0.758780	
9.04839	  0.091779	  0.870728	  0.769329	
9.08165	  0.090392	  0.886266	  0.777573	
9.11492	  0.087966	  0.895595	  0.784200	
9.14819	  0.084508	  0.899513	  0.790705	
9.18145	  0.080517	  0.900156	  0.797963	
9.21472	  0.076829	  0.898768	  0.801692	
9.24798	  0.074158	  0.894205	  0.799977	
9.28125	  0.072848	  0.884289	  0.793481	
9.31452	  0.072970	  0.869606	  0.781583	
9.34778	  0.074518	  0.852641	  0.766353	
9.38105	  0.077060	  0.836404	  0.750635	
9.41431	  0.079825	  0.824486	  0.736404	
9.44758	  0.082186	  0.819792	  0.725914	
9.48085	  0.083620	  0.823132	  0.719765	
9.51411	  0.083651	  0.832033	  0.715131	
9.54738	  0.081542	  0.841643	  0.706149	
9.58065	  0.076931	  0.842387	  0.686506	
9.61391	  0.070400	  0.821700	  0.657762	
9.64718	  0.062861	  0.773946	  0.623264	
9.68044	  0.054925	  0.701087	  0.585203	
9.71371	  0.047146	  0.608202	  0.544798	
9.74698	  0.040238	  0.505437	  0.503745	
9.78024	  0.034567	  0.402940	  0.463427	
9.81351	  0.030342	  0.308955	  0.427939	
9.84677	  0.027398	  0.230690	  0.399144	
9.88004	  0.025460	  0.171400	  0.377067	
9.91331	  0.024491	  0.131041	  0.361034	
9.94657	  0.024329	  0.107178	  0.349451	
9.97984	  0.024639	  0.096270	  0.341849	
10.0131	  0.025079	  0.094519	  0.337049	
10.0464	  0.025334	  0.098596	  0.333300	
10.0796	  0.025212	  0.105614	  0.329555	
10.1129	  0.024662	  0.114182	  0.324151	
10.1462	  0.023888	  0.123546	  0.318054	
10.1794	  0.023072	  0.133226	  0.312230	
10.2127	  0.022171	  0.142088	  0.304257	
10.246	  0.021274	  0.149581	  0.293430	
10.2792	  0.020423	  0.154809	  0.278926	
10.3125	  0.019576	  0.156459	  0.260633	
10.3458	  0.018727	  0.153922	  0.240775	
10.379	  0.017837	  0.148127	  0.220598	
10.4123	  0.016892	  0.140469	  0.201330	
10.4456	  0.015933	  0.131891	  0.183411	
10.4788	  0.015020	  0.123135	  0.166312	
10.5121	  0.014181	  0.114474	  0.149894	
10.5454	  0.013463	  0.105838	  0.134814	
10.5786	  0.012858	  0.097309	  0.121612	
10.6119	  0.012313	  0.088498	  0.109948	
10.6452	  0.011874	  0.079539	  0.100788	
10.6784	  0.011548	  0.071677	  0.094497	
10.7117	  0.011284	  0.065519	  0.089980	
10.745	  0.011072	  0.060786	  0.085666	
10.7782	  0.010903	  0.056943	  0.080413	
10.8115	  0.010764	  0.053684	  0.074450	
10.8448	  0.010626	  0.051045	  0.068320	
10.878	  0.010475	  0.048964	  0.062310	
10.9113	  0.010312	  0.047453	  0.056673	
10.9446	  0.010124	  0.046597	  0.051335	
